<?xml version="1.0" encoding="UTF-8"?>
<svg id="Layer_1" xmlns="http://www.w3.org/2000/svg" version="1.1" viewBox="0 0 1080 1080">
  <!-- Generator: Adobe Illustrator 29.4.0, SVG Export Plug-In . SVG Version: 2.1.0 Build 152)  -->
  <defs>
    <style>
      .st0 {
        stroke: #fcfcfc;
        stroke-linecap: round;
        stroke-linejoin: round;
      }
    </style>
  </defs>
  <polygon class="st0" points="188.6 476.3 305.3 476.3 305.3 843.9 414.5 903.6 414.5 476.3 531.3 476.3 531.3 367.1 188.6 367.1 188.6 476.3"/>
  <g>
    <polygon class="st0" points="768.7 132.7 768.7 206.1 801.6 206.1 801.6 228.7 676.2 228.7 676.2 206.1 709.1 206.1 709.1 132.7 569.8 132.7 569.8 206.1 602.7 206.1 602.7 228.7 477.3 228.7 477.3 206.1 510.2 206.1 510.2 132.7 370.9 132.7 370.9 206.1 403.8 206.1 403.8 228.7 278.4 228.7 278.4 206.1 311.3 206.1 311.3 132.7 172 132.7 172 206.1 204.9 206.1 204.9 228.7 193.1 228.7 193.1 333.2 886.9 333.2 886.9 228.7 875.1 228.7 875.1 206.1 908 206.1 908 132.7 768.7 132.7"/>
    <polygon class="st0" points="782.2 582.7 674.8 582.7 674.8 367.1 565.6 367.1 565.6 947.3 674.8 890.6 674.8 691.9 782.2 691.9 782.2 834.8 891.4 778.1 891.4 367.1 782.2 367.1 782.2 582.7"/>
  </g>
</svg>