<?xml version="1.0" standalone="no"?>
<!DOCTYPE svg PUBLIC "-//W3C//DTD SVG 20010904//EN"
 "http://www.w3.org/TR/2001/REC-SVG-20010904/DTD/svg10.dtd">
<svg version="1.0" xmlns="http://www.w3.org/2000/svg"
 width="735.000000pt" height="798.000000pt" viewBox="0 0 735.000000 798.000000"
 preserveAspectRatio="xMidYMid meet">

<g transform="translate(0.000000,798.000000) scale(0.100000,-0.100000)"
fill="#000000" stroke="none">
<path d="M0 3990 l0 -3990 3675 0 3675 0 0 3990 0 3990 -3675 0 -3675 0 0
-3990z m4705 2810 c-5 -97 -30 -217 -60 -280 -10 -21 -14 -25 -10 -10 4 14 7
34 6 45 0 10 5 25 11 32 6 8 8 16 5 19 -3 3 -2 16 3 29 12 32 1 65 -21 65 -11
0 -19 -4 -19 -10 0 -5 -6 -10 -14 -10 -16 0 -87 -65 -80 -74 2 -3 1 -4 -2 -1
-4 2 -37 -24 -75 -59 -124 -118 -270 -200 -451 -257 -54 -17 -98 -32 -98 -34
0 -3 8 -55 17 -117 18 -118 23 -467 9 -560 -7 -45 -6 -46 16 -41 23 5 23 5 3
-11 -20 -17 -20 -17 2 -11 12 3 24 1 28 -5 3 -5 15 -10 26 -10 11 0 34 -7 50
-16 22 -11 29 -20 24 -32 -4 -9 -9 -33 -11 -52 -4 -29 1 -41 26 -70 17 -19 45
-56 63 -82 17 -27 36 -47 43 -44 7 3 10 -2 8 -12 -5 -20 147 -285 161 -283 6
1 10 11 9 22 0 14 7 22 27 26 16 3 27 9 24 12 -8 14 56 43 81 37 16 -4 23 -3
19 3 -3 6 6 10 22 10 64 -1 301 14 333 20 48 10 105 -2 141 -28 17 -13 37 -20
44 -17 8 3 15 2 17 -2 6 -14 147 -64 159 -56 7 4 9 3 5 -4 -3 -6 4 -13 16 -17
66 -18 97 -38 103 -67 4 -16 5 -32 2 -34 -3 -3 -8 8 -12 24 -5 25 -13 32 -48
40 -42 11 -108 21 -163 27 -16 1 -74 8 -129 15 -58 7 -131 9 -174 5 -65 -6
-77 -11 -114 -43 -39 -35 -40 -36 -20 -7 33 47 59 67 115 87 l53 18 -45 -1
c-25 -1 -83 4 -129 11 -75 11 -87 11 -112 -4 -16 -10 -29 -14 -29 -10 0 3 -7
1 -15 -6 -9 -7 -14 -15 -11 -17 2 -2 -11 -19 -30 -37 -19 -18 -34 -38 -34 -44
0 -6 -5 -14 -12 -18 -7 -5 -8 -3 -3 6 5 8 4 11 -3 6 -6 -4 -9 -13 -6 -20 3 -7
-2 -18 -10 -25 -14 -11 -11 -19 19 -58 19 -25 35 -52 35 -59 0 -7 -33 -42 -72
-78 -67 -61 -73 -65 -80 -45 -5 11 -6 25 -2 30 3 5 -1 9 -8 9 -8 0 -9 3 -3 8
11 8 45 58 45 67 0 3 -7 5 -15 5 -8 0 -15 5 -15 10 0 6 8 10 17 10 28 0 9 10
-51 25 -35 9 -71 27 -90 44 -17 17 -42 38 -55 49 -22 17 -22 50 0 37 5 -4 16
-2 25 3 13 7 10 11 -17 17 -27 6 -30 9 -13 12 29 5 31 59 3 68 -10 4 -19 10
-19 15 0 18 -65 120 -80 125 -9 3 -17 17 -18 32 -1 15 -7 30 -13 34 -6 3 -9
12 -7 20 5 21 -50 136 -68 143 -13 5 -15 15 -11 40 5 33 -6 56 -28 56 -6 0
-22 -30 -35 -66 -14 -36 -29 -68 -34 -71 -4 -3 -6 3 -3 13 31 101 57 389 57
618 0 141 -14 333 -26 345 -7 7 -41 -29 -41 -44 0 -17 -34 -97 -40 -92 -2 2 3
22 11 45 8 23 12 43 8 46 -4 2 -36 -2 -71 -10 -105 -21 -126 -22 -123 -2 3 16
0 16 -39 3 -23 -8 -48 -23 -56 -33 -12 -15 -13 -12 -8 24 l6 41 -39 7 c-24 3
-53 18 -75 39 -26 24 -49 34 -79 37 -67 7 -249 6 -293 -2 -22 -4 -69 -10 -105
-13 -79 -8 -178 -30 -230 -51 -30 -12 -44 -27 -60 -60 -12 -24 -26 -46 -31
-49 -4 -3 -14 -25 -20 -48 -7 -23 -18 -49 -25 -57 -6 -8 -11 -26 -9 -40 1 -15
-7 -33 -21 -46 -12 -12 -20 -25 -17 -28 3 -3 0 -12 -7 -21 -10 -12 -8 -16 11
-24 l24 -10 -23 0 c-23 -1 -54 -16 -85 -41 -16 -12 -18 -25 -13 -100 2 -47 2
-75 0 -63 -4 15 -15 25 -32 29 -202 45 -357 111 -467 200 -135 108 -212 213
-261 356 -27 80 -44 272 -27 316 8 21 14 15 63 -68 50 -84 202 -260 224 -260
5 0 17 -6 25 -14 40 -34 252 -82 407 -93 l92 -6 -9 -26 -9 -26 -125 7 c-168 9
-327 51 -309 80 6 9 -44 58 -59 58 -4 0 -24 11 -45 24 -20 12 -40 23 -43 22
-4 -1 -16 7 -27 17 -12 11 -26 16 -33 11 -8 -4 -10 -3 -5 4 4 7 5 12 2 12 -2
0 -11 3 -19 6 -8 3 -26 -6 -40 -19 l-26 -23 34 -69 c19 -37 32 -71 30 -75 -3
-4 2 -13 10 -20 8 -7 15 -18 15 -25 0 -6 9 -20 20 -30 11 -10 17 -22 14 -26
-8 -13 62 -84 116 -119 73 -47 181 -87 292 -109 161 -31 162 -31 164 4 0 17 2
45 2 63 1 20 12 42 26 57 18 18 27 43 36 97 6 40 13 82 16 94 5 20 1 21 -108
27 -151 9 -206 24 -75 21 53 -1 97 2 97 6 0 5 17 7 37 5 26 -2 33 -1 22 7 -11
7 -9 9 8 5 15 -3 20 -1 16 9 -3 8 1 14 11 14 9 0 16 5 16 11 0 6 9 9 20 6 13
-3 18 -1 13 6 -4 6 0 8 10 4 9 -3 19 -1 23 5 4 7 3 8 -4 4 -7 -4 -12 -2 -12 4
0 6 12 15 28 22 15 6 41 17 59 24 17 8 36 14 42 14 6 0 11 5 11 10 0 6 8 10
18 10 14 0 15 -2 2 -10 -8 -5 -10 -10 -4 -10 6 0 17 6 23 14 7 8 21 12 33 8
16 -4 19 -2 13 8 -6 10 -3 12 13 8 16 -4 19 -2 15 10 -5 12 -2 14 11 9 10 -4
26 -2 36 3 13 7 21 7 25 0 3 -5 12 -10 18 -10 7 0 6 4 -3 10 -10 7 0 8 33 4
39 -6 47 -4 47 10 0 19 13 20 40 4 16 -10 22 -10 32 1 10 11 10 12 1 7 -7 -4
-13 -2 -13 3 0 7 23 10 58 10 51 -1 53 -2 22 -9 l-35 -7 45 -3 c121 -8 183
-17 230 -34 25 -10 53 -15 63 -12 11 2 51 -10 90 -28 83 -38 139 -58 132 -46
-2 4 10 5 28 2 46 -7 68 -6 107 2 19 4 42 7 51 7 9 1 21 15 28 35 16 44 28 43
37 -1 3 -19 10 -35 14 -35 5 0 6 10 3 23 -4 22 -4 22 13 2 13 -15 15 -16 11
-3 -4 11 -1 16 11 16 9 -1 28 2 42 6 24 7 24 6 6 -8 -18 -14 -18 -16 -3 -16
10 0 20 6 23 14 3 9 18 14 35 14 16 -1 32 2 36 5 3 4 -5 7 -18 8 l-24 1 25 7
c15 4 28 3 33 -3 5 -8 10 -7 15 2 5 7 13 12 18 10 17 -5 104 35 97 45 -4 6 2
8 15 5 12 -4 20 -2 16 3 -3 5 2 9 11 9 22 0 112 60 160 106 100 99 133 151
241 389 l27 60 8 -50 c5 -27 6 -93 4 -145z m-134 -439 c-24 -39 -50 -76 -58
-83 -9 -7 7 23 36 66 28 43 51 83 51 89 0 6 3 7 6 4 4 -3 -12 -38 -35 -76z
m-1611 49 c0 -5 -8 -10 -17 -10 -15 0 -16 2 -3 10 19 12 20 12 20 0z m1540
-154 c0 -3 -4 -8 -10 -11 -5 -3 -10 -1 -10 4 0 6 5 11 10 11 6 0 10 -2 10 -4z
m-55 -59 c-21 -33 -113 -110 -199 -167 -80 -53 -215 -125 -222 -118 -2 3 27
20 64 39 105 53 227 136 300 205 37 35 68 63 70 64 1 0 -4 -10 -13 -23z m-664
-104 c-12 -20 -14 -14 -5 12 4 9 9 14 11 11 3 -2 0 -13 -6 -23z m-1394 -200
c-3 -10 -5 -2 -5 17 0 19 2 27 5 18 2 -10 2 -26 0 -35z m719 -4 c66 -12 81
-19 66 -28 -5 -3 -12 -17 -13 -30 -2 -14 -14 -36 -26 -49 -18 -19 -30 -23 -58
-20 -19 2 -35 1 -35 -4 0 -4 -6 -5 -14 -2 -22 8 -48 66 -44 99 3 27 16 36 59
44 3 1 32 -4 65 -10z m-485 -59 c-1 -14 -18 -65 -36 -115 -21 -56 -36 -118
-40 -164 -3 -41 -8 -78 -10 -81 -3 -6 -16 -163 -18 -217 0 -15 -36 -17 -71 -3
-16 6 -29 21 -35 42 -5 18 -10 25 -10 14 -1 -14 -7 -17 -26 -14 -19 4 -24 1
-22 -14 2 -18 -38 -47 -88 -63 -16 -5 -17 -8 -5 -15 8 -6 27 -10 42 -10 28 0
58 -32 58 -60 -1 -9 -7 -4 -15 11 -10 18 -25 28 -46 31 l-31 5 6 -49 c4 -26 9
-55 12 -63 12 -30 -26 -15 -42 18 -9 17 -27 44 -40 60 -19 23 -23 24 -21 7 1
-10 3 -17 5 -15 6 6 36 -51 51 -96 10 -32 17 -37 47 -41 l36 -4 -4 53 c-3 52
5 70 16 36 5 -16 0 -94 -7 -98 -1 -1 -32 -5 -68 -8 l-67 -6 -12 30 c-7 16 -15
27 -18 25 -2 -3 4 -20 15 -38 13 -22 18 -45 15 -69 -3 -30 1 -41 25 -65 26
-26 28 -34 26 -96 -1 -44 -7 -77 -17 -93 -9 -13 -16 -31 -16 -38 0 -8 -7 -20
-15 -27 -8 -7 -18 -30 -21 -51 -4 -22 -10 -39 -15 -39 -5 0 -9 -7 -9 -15 0 -8
-9 -24 -20 -35 -11 -11 -15 -20 -8 -20 6 0 3 -7 -8 -15 -10 -8 -16 -15 -11
-15 4 0 -6 -25 -22 -55 -23 -43 -57 -128 -66 -165 -1 -3 -7 -17 -13 -31 -6
-15 -14 -44 -18 -65 -3 -22 -11 -45 -16 -51 -18 -22 0 -42 42 -49 22 -4 40
-10 40 -14 0 -8 -58 -19 -105 -20 -29 -1 -28 -2 17 -25 39 -21 49 -32 58 -65
6 -24 17 -40 25 -40 8 0 15 -9 15 -19 0 -11 5 -23 11 -27 6 -3 9 -15 6 -25 -3
-11 0 -19 6 -19 7 0 4 -5 -5 -10 -9 -6 -19 -24 -23 -40 -4 -17 -10 -30 -15
-30 -5 0 -12 -9 -15 -20 -3 -11 -13 -20 -21 -20 -8 0 -15 -6 -16 -12 0 -7 -2
-18 -2 -24 -1 -6 -17 -27 -36 -47 -19 -20 -45 -48 -57 -62 -12 -14 -26 -26
-30 -26 -4 0 -7 -13 -5 -29 2 -15 -2 -31 -7 -35 -6 -3 -11 -16 -12 -28 0 -12
-3 -16 -6 -9 -7 19 -23 4 -23 -23 0 -13 -7 -30 -15 -39 -8 -8 -12 -22 -9 -31
4 -8 -1 -24 -10 -34 -15 -16 -15 -20 -1 -31 11 -9 13 -23 9 -54 -4 -22 -10
-45 -14 -51 -4 -5 -10 -79 -12 -163 -3 -88 -9 -157 -15 -160 -15 -10 -23 -74
-8 -69 20 8 169 49 222 62 32 8 50 8 46 2 -5 -9 36 -5 85 9 56 15 -96 -45
-213 -86 -172 -58 -233 -88 -237 -112 -3 -18 -3 -18 -14 0 -9 14 -8 26 7 57
23 46 23 51 5 36 -13 -11 -14 -5 -10 41 2 29 6 67 9 83 5 26 4 27 -5 8 -14
-33 -20 -28 -10 7 5 18 5 32 -1 35 -5 4 -8 23 -8 43 2 34 2 34 6 7 3 -16 9
-34 15 -40 7 -7 9 -2 4 15 -3 14 -6 40 -6 58 0 18 -4 31 -8 28 -5 -3 -7 18 -5
47 2 40 1 47 -7 32 -8 -16 -9 -13 -5 15 2 19 5 112 6 205 1 187 7 253 20 220
7 -18 8 -18 8 -2 1 10 -5 20 -13 23 -8 3 -12 12 -9 20 3 8 9 11 15 8 5 -3 9 2
7 12 -1 11 3 30 10 44 10 23 11 23 6 -10 -5 -32 -4 -31 15 13 11 27 18 53 15
58 -4 5 -2 9 4 9 6 0 7 7 4 17 -4 10 -2 14 4 10 14 -9 24 17 17 41 -5 13 -4
14 4 4 7 -11 11 -7 16 14 4 15 16 46 27 68 21 44 25 59 8 36 -11 -16 -10 -7 6
47 3 12 2 24 -3 27 -5 3 -8 17 -6 32 1 16 -6 39 -19 56 l-22 29 23 84 c12 46
19 91 16 99 -4 10 0 18 10 22 12 4 15 13 10 28 -4 11 -3 18 2 13 8 -8 76 164
78 200 0 11 4 19 8 17 3 -2 12 13 19 33 6 21 18 44 26 52 8 8 12 22 10 33 -3
10 -2 16 2 13 5 -2 13 7 20 21 16 35 13 44 -5 14 -10 -16 -13 -18 -8 -5 27 78
32 87 38 74 3 -8 4 -2 1 13 -3 15 -1 30 5 33 5 3 10 14 10 24 0 10 7 24 15 31
9 7 13 20 10 29 -3 11 0 9 11 -4 16 -20 16 -20 9 3 -5 16 -2 22 9 22 10 0 13
6 10 15 -4 10 0 15 11 15 10 0 13 5 9 12 -4 7 -3 8 4 4 7 -4 14 4 18 21 12 56
16 63 26 57 8 -5 9 1 5 17 -4 13 -7 30 -7 37 0 7 -5 10 -12 6 -7 -4 -8 -3 -4
5 4 6 -4 31 -18 56 -14 24 -26 50 -26 59 0 9 30 30 73 51 39 20 63 33 52 29
-11 -3 -29 -9 -40 -12 -19 -5 -19 -4 1 14 22 20 46 78 37 88 -4 3 -1 6 5 6 6
0 12 15 14 33 3 28 6 24 27 -40 l23 -73 44 0 c24 0 44 1 44 3 0 1 -9 36 -20
77 -28 106 -27 122 8 115 25 -5 25 -5 5 4 -32 14 -29 18 8 13 19 -3 29 -1 26
5 -3 5 5 22 19 37 15 15 23 34 20 42 -3 9 -1 12 4 9 6 -3 11 -21 12 -38 1 -21
4 -12 8 23 l7 55 1 -46 c1 -25 5 -49 8 -52 7 -7 114 157 114 174 0 5 -9 18
-20 29 -23 23 -28 108 -8 128 7 7 30 12 53 10 36 -3 40 -5 36 -28z m1030 -43
c-10 -9 -11 -8 -5 6 3 10 9 15 12 12 3 -3 0 -11 -7 -18z m-19 -39 c-7 -7 -12
-8 -12 -2 0 14 12 26 19 19 2 -3 -1 -11 -7 -17z m-34 -79 c-6 -16 -12 -28 -14
-26 -5 5 13 57 20 57 3 0 0 -14 -6 -31z m-61 15 c-3 -3 -12 -4 -19 -1 -8 3 -5
6 6 6 11 1 17 -2 13 -5z m-487 -182 c-69 -53 -159 -145 -163 -166 -4 -20 -4
-20 -6 2 0 12 11 35 27 50 40 41 161 142 170 142 4 -1 -9 -13 -28 -28z m-223
-34 c-3 -7 -5 -2 -5 12 0 14 2 19 5 13 2 -7 2 -19 0 -25z m73 -194 c0 -19 -4
-33 -8 -30 -8 5 -4 66 4 66 2 0 4 -16 4 -36z m-40 -14 c0 -6 13 -24 29 -40 22
-24 29 -43 34 -90 6 -55 4 -67 -28 -136 -35 -75 -99 -167 -149 -213 -26 -24
-37 -17 -13 8 10 11 10 14 0 18 -9 3 -13 27 -13 69 0 45 -5 73 -17 91 -10 15
-18 31 -19 37 0 6 -2 19 -2 29 -2 11 -11 17 -29 18 -23 0 -20 3 17 15 25 7 48
14 53 14 4 0 7 -21 7 -47 0 -62 9 -50 15 21 3 32 7 61 9 64 67 124 106 176
106 142z m1319 -24 c-3 -3 -11 5 -18 17 -13 21 -12 21 5 5 10 -10 16 -20 13
-22z m531 16 c0 -4 -16 -24 -36 -43 -19 -18 -35 -29 -34 -24 5 24 -1 34 -22
37 -18 3 -11 8 27 20 59 20 65 20 65 10z m-470 -77 c14 -19 14 -19 -2 -6 -10
7 -18 18 -18 24 0 6 1 8 3 6 1 -2 9 -13 17 -24z m35 -25 c3 -5 1 -10 -4 -10
-6 0 -11 5 -11 10 0 6 2 10 4 10 3 0 8 -4 11 -10z m-1304 -171 c6 -52 11 -104
11 -116 0 -13 4 -20 9 -17 5 3 9 0 9 -5 0 -6 -5 -11 -11 -11 -6 0 -8 -8 -4
-19 4 -15 -1 -21 -25 -30 l-31 -10 6 42 c8 56 13 128 14 206 1 35 3 62 6 59 4
-3 11 -48 16 -99z m1125 -13 c14 -26 20 -45 14 -41 -11 7 -60 99 -60 112 0 11
16 -14 46 -71z m-1636 17 c-111 -86 -181 -203 -188 -309 -4 -57 -2 -67 28
-111 24 -35 27 -43 10 -28 -62 56 -73 169 -26 266 30 63 114 158 166 188 48
29 52 26 10 -6z m464 -35 c8 -32 7 -40 -4 -33 -5 3 -12 -4 -14 -17 -3 -13 -7
-35 -11 -50 -3 -15 -8 -53 -10 -83 l-6 -55 51 0 c55 0 68 -17 20 -26 -35 -8
-37 -14 -10 -37 21 -18 26 -37 10 -37 -22 0 -25 2 -22 18 3 14 2 14 -13 2 -9
-7 -14 -22 -12 -32 4 -15 -1 -18 -40 -18 -27 0 -42 4 -38 10 3 6 0 10 -8 10
-22 0 -43 46 -28 64 16 19 -4 31 -44 27 l-30 -3 44 43 c53 53 95 114 86 128
-3 6 1 11 10 11 11 0 15 5 11 16 -3 8 -2 13 3 10 4 -3 13 13 20 34 13 45 26
51 35 18z m2461 -171 c-2 -7 -9 -59 -15 -117 -11 -114 -20 -182 -44 -359 -18
-127 -21 -205 -7 -197 12 8 32 -69 25 -101 -4 -23 -3 -25 6 -13 10 13 11 12 6
-4 -3 -10 3 -48 14 -85 26 -83 21 -117 -28 -165 -31 -29 -39 -45 -40 -76 -1
-22 2 -40 7 -40 5 0 12 -8 15 -18 3 -10 19 -25 35 -35 l28 -17 37 76 c20 41
36 79 36 85 0 5 6 9 13 9 8 0 7 4 -3 10 -12 8 -10 10 9 10 13 0 21 3 17 7 -4
4 8 15 26 26 18 10 25 16 16 13 -10 -3 -18 -1 -18 4 0 13 50 70 62 70 5 0 28
-18 51 -40 26 -26 49 -40 61 -38 40 6 82 121 88 248 8 138 63 40 77 -136 4
-58 13 -110 21 -119 11 -14 17 -13 58 10 24 14 48 25 52 25 17 0 19 -57 5
-109 l-14 -55 34 -70 c19 -38 35 -80 35 -93 0 -28 -37 -143 -52 -160 -7 -9 -7
-13 1 -13 7 0 9 -4 6 -10 -3 -5 2 -21 11 -35 19 -29 13 -31 -22 -8 -20 13 -30
14 -44 5 -10 -6 -76 -14 -147 -17 -92 -4 -131 -10 -138 -20 -8 -12 -14 -11
-37 3 -15 9 -31 24 -34 34 -6 20 22 89 67 161 34 56 32 63 -33 97 l-41 21 -29
-28 c-16 -15 -40 -50 -54 -77 -27 -54 -63 -104 -65 -90 -1 5 -3 45 -4 89 -2
97 8 150 41 221 22 46 30 54 60 60 25 5 34 11 32 23 -4 22 -35 26 -54 6 -48
-48 -104 -167 -109 -234 -2 -18 -9 -44 -15 -57 -11 -19 -10 -25 3 -39 15 -15
15 -20 -4 -71 -11 -30 -20 -69 -18 -87 4 -56 0 -66 -20 -60 -10 2 -37 -5 -59
-16 -23 -12 -47 -21 -53 -21 -7 0 -37 17 -67 37 l-54 38 32 8 c30 8 31 9 16
26 -9 10 -16 21 -16 25 0 4 -10 28 -21 54 -12 26 -30 66 -40 89 -10 23 -31 56
-48 74 -17 17 -33 40 -36 50 -4 13 -19 21 -44 25 -37 6 -39 8 -44 53 -3 25 -9
55 -13 66 -5 17 -4 16 11 -3 9 -13 17 -38 18 -57 1 -21 7 -35 16 -38 14 -3 16
11 16 100 -1 56 0 103 1 103 19 0 54 -23 48 -31 -3 -6 -7 -49 -8 -96 l-1 -84
25 4 c18 4 32 -3 52 -24 16 -16 28 -36 28 -44 0 -8 16 -37 35 -63 46 -64 66
-112 54 -133 -4 -9 -6 -33 -2 -53 l6 -36 51 0 c30 0 60 -6 72 -15 10 -8 22
-15 27 -15 13 0 7 38 -9 54 -8 9 -12 20 -9 26 3 5 1 10 -6 10 -11 0 -9 41 6
87 6 18 2 23 -19 29 -19 4 -36 24 -62 71 -20 36 -48 75 -62 88 l-25 23 29 33
c16 17 57 59 92 92 34 33 62 66 62 74 0 7 -9 46 -20 86 -41 152 -45 207 -27
350 10 73 24 174 32 225 8 51 20 147 27 212 6 65 15 117 20 114 4 -3 5 -10 3
-17z m-261 -212 c-4 -8 -8 -15 -10 -15 -2 0 -4 7 -4 15 0 8 4 15 10 15 5 0 7
-7 4 -15z m-996 -32 c-10 -2 -18 -14 -18 -26 -1 -22 -1 -22 -15 -3 -22 29 -19
36 18 35 17 -1 24 -3 15 -6z m1066 -160 c4 -4 10 -2 15 5 5 9 12 8 29 -4 16
-11 22 -25 22 -54 0 -44 -27 -120 -42 -120 -5 0 -8 6 -5 13 5 13 -23 67 -34
67 -4 0 -21 13 -38 29 -32 30 -41 61 -17 61 7 0 19 7 26 15 10 12 8 23 -9 58
-12 24 -21 52 -21 63 0 10 15 -14 34 -54 18 -40 36 -76 40 -79z m-3046 14
c-26 -22 -52 -64 -75 -122 -8 -21 -12 -25 -12 -11 -2 44 75 156 107 156 4 0
-5 -10 -20 -23z m2045 -119 l56 -133 40 0 c46 1 49 -7 25 -58 -15 -32 -15 -36
9 -84 l26 -50 -57 56 c-31 31 -86 75 -122 96 -86 52 -87 53 -99 119 -9 48 -8
64 8 104 10 26 21 55 24 65 15 40 36 13 90 -115z m977 -175 c0 -51 -4 -93 -9
-93 -10 0 -41 72 -41 94 0 8 7 17 16 20 11 4 15 17 14 43 -3 53 -1 60 10 43 5
-8 10 -57 10 -107z m-2064 -178 c-11 -8 -16 -15 -12 -15 5 0 3 -7 -4 -15 -9
-11 -9 -15 -1 -15 7 0 5 -9 -5 -26 -15 -23 -16 -51 -10 -277 3 -139 9 -265 13
-281 5 -23 3 -27 -8 -21 -11 7 -12 6 -3 -6 14 -18 27 -112 14 -104 -12 7 -30
-27 -30 -59 0 -14 -5 -28 -11 -32 -8 -4 -7 -9 2 -15 10 -6 11 -9 2 -9 -7 0
-22 -9 -33 -20 -11 -11 -24 -20 -29 -20 -9 0 -16 82 -27 297 -7 131 11 509 26
548 5 12 34 35 66 53 64 34 80 40 50 17z m1114 -161 l30 5 -25 -40 -26 -40 16
-92 c21 -128 45 -350 45 -424 0 -34 4 -73 10 -87 6 -17 6 -26 0 -26 -6 0 -10
-19 -11 -42 0 -24 -5 -52 -10 -63 -7 -16 -8 -14 -4 10 11 75 8 228 -5 220 -6
-3 -7 1 -4 9 3 9 1 16 -4 16 -6 0 -13 21 -17 48 -11 88 -28 163 -34 153 -4 -6
-7 15 -7 46 0 34 -5 58 -12 61 -8 2 -10 13 -5 29 5 22 3 25 -12 19 -14 -5 -15
-4 -7 7 7 8 7 18 2 27 -12 19 -13 70 -1 70 5 0 12 -6 14 -12 3 -8 6 -6 6 5 1
9 -3 17 -7 17 -10 0 -27 33 -38 70 -6 21 -5 23 8 12 13 -10 17 -9 22 10 3 13
6 34 7 48 0 21 4 18 20 -19 18 -40 21 -43 49 -37z m1148 -179 c-3 -3 -9 2 -12
12 -6 14 -5 15 5 6 7 -7 10 -15 7 -18z m-1411 -152 c-2 -16 -4 -3 -4 27 0 30
2 43 4 28 2 -16 2 -40 0 -55z m209 0 c-10 -10 -19 5 -10 18 6 11 8 11 12 0 2
-7 1 -15 -2 -18z m1858 -207 c-3 -8 -19 -18 -36 -21 -18 -4 -32 -15 -36 -27
-3 -14 -7 -16 -12 -7 -6 9 -28 7 -96 -11 -49 -12 -96 -26 -104 -31 -18 -11 19
-4 98 18 54 15 89 12 77 -8 -4 -6 -16 -8 -27 -6 -27 8 -150 -31 -167 -51 -13
-16 -13 -16 -8 0 4 12 2 15 -9 11 -8 -3 -13 -12 -10 -20 3 -8 2 -11 -4 -8 -5
3 -34 -11 -65 -31 -31 -20 -76 -44 -98 -55 -23 -10 -36 -19 -29 -19 10 0 8 -9
-7 -36 -11 -19 -24 -53 -27 -75 -4 -23 -13 -43 -20 -46 -7 -2 -11 -12 -9 -21
1 -9 -1 -42 -5 -72 -5 -30 -11 -91 -14 -135 -9 -108 -25 -256 -32 -277 -3 -9
-14 -20 -26 -24 -14 -4 -17 -9 -8 -14 8 -5 7 -9 -7 -15 -10 -5 -20 -8 -23 -7
-3 0 -7 -11 -8 -26 -1 -14 -6 -28 -10 -31 -4 -3 -13 -17 -19 -31 -10 -21 -11
-15 -7 38 2 34 0 62 -5 62 -18 0 -45 -184 -46 -310 0 -105 4 -139 26 -215 14
-49 32 -101 39 -115 9 -16 9 -25 2 -28 -6 -2 -9 -11 -6 -20 6 -21 -17 25 -47
93 -26 59 -23 43 -42 230 -23 214 -29 323 -17 305 5 -8 10 -32 10 -52 0 -67
18 -40 25 38 6 61 11 77 25 81 20 5 23 19 45 267 9 93 13 176 10 186 -4 13 5
19 50 30 31 7 62 13 70 13 13 0 13 2 0 17 -9 10 -15 36 -15 63 0 26 -3 47 -7
46 -5 0 -28 -13 -53 -28 -39 -23 -46 -33 -50 -67 -4 -31 -10 -39 -26 -41 -17
-2 -23 4 -26 28 -6 39 11 61 64 83 73 31 92 43 109 75 12 22 44 44 130 88 62
31 132 76 156 98 23 22 51 41 62 42 11 1 49 9 83 19 35 9 74 19 87 22 12 2 39
13 60 23 20 10 37 18 38 19 1 0 0 -6 -3 -14z m-2974 -241 c-7 -8 -9 -15 -4
-15 4 0 -1 -6 -12 -14 -19 -14 -19 -14 1 -13 17 2 20 -5 23 -42 2 -25 0 -56
-3 -70 -6 -23 -8 -21 -27 29 -11 30 -22 62 -24 70 -5 15 45 84 54 75 3 -2 -1
-11 -8 -20z m-66 -234 c-19 -32 -29 -33 -37 -2 -3 14 0 17 13 14 10 -3 21 0
24 6 16 26 16 8 0 -18z m-1138 -178 c25 -38 27 -62 9 -113 -17 -48 -15 -56 12
-42 37 20 341 97 350 89 1 -2 -47 -18 -108 -37 -72 -22 -105 -36 -97 -42 8 -5
1 -6 -17 -3 -18 3 -57 -4 -95 -17 -64 -23 -65 -24 -68 -62 -2 -24 0 -36 7 -32
6 4 8 13 5 20 -7 18 20 27 48 17 21 -8 19 -10 -22 -31 -57 -29 -57 -28 -37
-43 15 -11 16 -28 10 -144 -4 -96 -9 -130 -18 -127 -30 12 -38 55 -40 216 -3
195 -2 191 -15 183 -5 -3 -10 1 -10 9 0 9 5 16 12 16 7 0 5 7 -5 18 -8 9 -20
29 -26 45 -6 15 -18 27 -27 27 -14 0 -14 3 -3 16 12 14 95 62 110 64 4 0 15
-12 25 -27z m2425 -100 c11 -11 -22 -158 -57 -253 -18 -49 -40 -83 -79 -124
-36 -38 -52 -62 -48 -72 5 -14 3 -15 -15 -5 -28 15 -28 23 2 48 28 25 130 193
122 201 -4 3 -6 0 -6 -6 0 -7 -7 -12 -16 -12 -9 0 -12 5 -8 12 4 7 3 8 -4 4
-7 -4 -12 -14 -12 -21 0 -9 -6 -12 -15 -9 -8 4 -12 10 -9 15 3 5 1 9 -5 9 -5
0 -11 -6 -14 -12 -4 -10 -7 -10 -18 0 -11 10 -17 6 -31 -20 l-19 -33 7 35 c3
19 7 35 8 36 0 0 28 5 61 12 33 7 62 17 63 22 2 6 8 8 13 4 5 -3 9 -2 8 3 -1
4 5 24 13 43 31 71 32 96 2 123 l-27 26 38 -9 c20 -5 41 -12 46 -17z m-2256
-94 c-40 -19 -75 -25 -61 -11 10 10 68 30 86 30 8 0 -3 -8 -25 -19z m1033 -12
c-15 -12 -43 -35 -64 -52 -21 -16 -54 -44 -73 -60 -20 -17 -67 -56 -106 -86
-224 -177 -261 -206 -285 -224 -15 -11 -117 -88 -226 -171 -110 -82 -206 -154
-214 -159 -13 -8 -13 -7 0 9 31 39 871 696 952 746 43 26 49 25 16 -3z m890
-262 c-13 -5 -34 -21 -47 -35 l-23 -25 5 24 c4 14 2 30 -3 36 -7 8 5 11 40 11
42 -1 47 -3 28 -11z m1329 -7 c-3 -8 -6 -5 -6 6 -1 11 2 17 5 13 3 -3 4 -12 1
-19z m-3157 -15 c-14 -2 -31 -12 -37 -21 -12 -14 -13 -13 -13 6 0 19 5 22 38
21 26 -1 30 -3 12 -6z m-75 -13 c-3 -5 -33 -14 -66 -21 -49 -10 -62 -17 -70
-35 -12 -32 -16 -30 -11 6 3 22 11 31 36 39 68 21 121 27 111 11z m3228 -15
c-3 -9 -8 -14 -10 -11 -3 3 -2 9 2 15 9 16 15 13 8 -4z m-1213 -35 c0 -5 -4
-10 -10 -10 -5 0 -10 5 -10 10 0 6 5 10 10 10 6 0 10 -4 10 -10z m-152 -58
c25 -52 30 -83 6 -39 -8 15 -23 27 -34 27 -16 0 -20 7 -20 30 0 44 22 36 48
-18z m-137 -14 c16 -29 2 -21 -22 15 -17 23 -18 28 -6 18 10 -8 23 -23 28 -33z
m1486 -5 c-3 -10 -5 -2 -5 17 0 19 2 27 5 18 2 -10 2 -26 0 -35z m-3116 10 c2
-54 30 -170 49 -204 9 -17 4 -29 -11 -29 -5 0 -5 7 -2 17 5 12 3 14 -7 8 -9
-5 -11 -4 -6 4 8 13 -11 81 -24 81 -4 0 -11 12 -14 26 -4 15 -10 23 -13 20 -4
-4 -12 3 -19 16 -7 12 -27 27 -45 34 l-34 11 48 8 c26 4 50 11 53 16 9 15 24
10 25 -8z m2864 -252 c42 -20 35 -28 -10 -11 -14 5 -24 6 -21 1 8 -12 -18 -21
-33 -12 -14 9 -4 41 13 41 6 0 29 -9 51 -19z m115 -75 c0 -21 -1 -21 -18 1 -9
12 -26 29 -37 38 -16 12 -13 12 18 -2 25 -11 37 -23 37 -37z"/>
<path d="M3440 6345 c14 -8 30 -14 35 -14 6 0 -1 6 -15 14 -14 8 -29 14 -35
14 -5 0 1 -6 15 -14z"/>
<path d="M4978 5013 c7 -3 16 -2 19 1 4 3 -2 6 -13 5 -11 0 -14 -3 -6 -6z"/>
<path d="M4456 4985 c-11 -8 -15 -15 -9 -15 6 0 16 7 23 15 16 19 11 19 -14 0z"/>
<path d="M4900 4971 c14 -4 66 -11 115 -14 53 -3 77 -2 58 2 -44 11 -204 22
-173 12z"/>
<path d="M4450 4955 c-14 -8 -20 -14 -14 -15 5 0 19 7 30 15 24 18 16 19 -16
0z"/>
<path d="M2111 4964 c0 -11 3 -14 6 -6 3 7 2 16 -1 19 -3 4 -6 -2 -5 -13z"/>
<path d="M2086 4895 c-11 -8 -15 -15 -9 -15 6 0 16 7 23 15 16 19 11 19 -14 0z"/>
<path d="M1775 3940 c3 -5 11 -10 16 -10 6 0 7 5 4 10 -3 6 -11 10 -16 10 -6
0 -7 -4 -4 -10z"/>
<path d="M1622 3415 c0 -16 2 -22 5 -12 2 9 2 23 0 30 -3 6 -5 -1 -5 -18z"/>
<path d="M5273 3491 c19 -43 26 -51 49 -51 26 0 57 34 44 48 -3 3 -6 2 -6 -2
0 -4 -15 4 -32 17 -18 14 -43 28 -55 31 l-22 7 22 -50z"/>
<path d="M5332 2628 c-11 -14 -37 -276 -28 -285 13 -13 33 8 45 48 20 64 40
223 30 227 -5 2 -7 8 -3 13 8 14 -32 11 -44 -3z"/>
<path d="M5366 2385 c-3 -8 -1 -15 4 -15 6 0 10 7 10 15 0 8 -2 15 -4 15 -2 0
-6 -7 -10 -15z"/>
</g>
</svg>
